<svg width="235" height="235" viewBox="0 0 235 235" fill="none" xmlns="http://www.w3.org/2000/svg">
<path d="M235 117.5C235 182.393 182.393 235 117.5 235C52.6065 235 0 182.393 0 117.5C0 52.6065 52.6065 0 117.5 0C182.393 0 235 52.6065 235 117.5Z" fill="#FF8686"/>
<path d="M218 117.5C218 173.005 173.005 102.5 117.5 102.5C61.9954 102.5 17 173.005 17 117.5C17 61.9954 61.9954 17 117.5 17C173.005 17 218 61.9954 218 117.5Z" fill="white"/>
<path d="M66.4428 86L63.3278 83.55C63.9344 83.2583 64.6578 82.8442 65.4978 82.3075C66.3378 81.7708 67.2011 81.135 68.0878 80.4C68.9744 79.6533 69.8028 78.8133 70.5728 77.88C71.3428 76.9467 71.9669 75.9317 72.4453 74.835C72.9236 73.7383 73.1628 72.5717 73.1628 71.335L74.4228 72.875C73.8161 73.8667 72.9936 74.6775 71.9553 75.3075C70.9286 75.9258 69.5928 76.235 67.9478 76.235C66.5828 76.235 65.3578 75.92 64.2728 75.29C63.1994 74.66 62.3478 73.7908 61.7178 72.6825C61.0878 71.5742 60.7728 70.2967 60.7728 68.85C60.7728 67.2983 61.0994 65.9333 61.7528 64.755C62.4061 63.5767 63.3336 62.6608 64.5353 62.0075C65.7486 61.3425 67.1778 61.01 68.8228 61.01C70.5261 61.01 72.0136 61.3892 73.2853 62.1475C74.5569 62.9058 75.5428 63.9733 76.2428 65.35C76.9428 66.715 77.2928 68.3133 77.2928 70.145C77.2928 72.0467 76.9544 73.8317 76.2778 75.5C75.6128 77.1567 74.7378 78.6675 73.6528 80.0325C72.5794 81.3858 71.4069 82.57 70.1353 83.585C68.8753 84.5883 67.6444 85.3933 66.4428 86ZM68.7528 72.385C69.8728 72.385 70.7944 72.035 71.5178 71.335C72.2411 70.6233 72.6028 69.7367 72.6028 68.675C72.6028 67.6017 72.2411 66.6975 71.5178 65.9625C70.7944 65.2275 69.8728 64.86 68.7528 64.86C67.6561 64.86 66.7403 65.2275 66.0053 65.9625C65.2703 66.6975 64.9028 67.6017 64.9028 68.675C64.9028 69.7367 65.2703 70.6233 66.0053 71.335C66.7403 72.035 67.6561 72.385 68.7528 72.385Z" fill="#FF8686"/>
<path d="M87.1811 86.455C85.8394 86.455 84.6086 86.28 83.4886 85.93C82.3686 85.58 81.3594 85.1017 80.4611 84.495L81.5111 80.435C82.3744 80.9717 83.2494 81.4092 84.1361 81.7475C85.0344 82.0858 86.0261 82.255 87.1111 82.255C88.4411 82.255 89.4969 81.905 90.2786 81.205C91.0603 80.505 91.4511 79.56 91.4511 78.37C91.4511 77.0867 91.0078 76.0833 90.1211 75.36C89.2344 74.6367 87.9511 74.275 86.2711 74.275C85.5011 74.275 84.7311 74.3217 83.9611 74.415C83.2028 74.5083 82.4444 74.625 81.6861 74.765L83.2611 61.5H94.8111L94.5311 65.84H86.6211L85.7811 72.63L84.1011 71.09C84.6611 70.9267 85.2444 70.8042 85.8511 70.7225C86.4694 70.6408 87.1344 70.6 87.8461 70.6C89.4094 70.6 90.7861 70.9092 91.9761 71.5275C93.1778 72.1342 94.1111 73.0208 94.7761 74.1875C95.4528 75.3425 95.7911 76.7367 95.7911 78.37C95.7911 80.05 95.4178 81.4967 94.6711 82.71C93.9361 83.9117 92.9211 84.8392 91.6261 85.4925C90.3311 86.1342 88.8494 86.455 87.1811 86.455Z" fill="#FF8686"/>
<path d="M109.9 86.49C107.835 86.49 106.027 85.9533 104.475 84.88C102.935 83.795 101.733 82.2842 100.87 80.3475C100.007 78.3992 99.5749 76.13 99.5749 73.54C99.5749 71.0667 100.007 68.8908 100.87 67.0125C101.733 65.1225 102.935 63.6525 104.475 62.6025C106.027 61.5408 107.835 61.01 109.9 61.01C111.977 61.01 113.785 61.5408 115.325 62.6025C116.877 63.6642 118.078 65.14 118.93 67.03C119.793 68.9083 120.225 71.0783 120.225 73.54C120.225 76.13 119.793 78.3992 118.93 80.3475C118.078 82.2842 116.877 83.795 115.325 84.88C113.785 85.9533 111.977 86.49 109.9 86.49ZM109.9 82.465C111.008 82.465 112 82.1617 112.875 81.555C113.762 80.9483 114.462 79.9917 114.975 78.685C115.488 77.3667 115.745 75.6517 115.745 73.54C115.745 70.635 115.185 68.4825 114.065 67.0825C112.957 65.6708 111.568 64.965 109.9 64.965C108.243 64.965 106.855 65.665 105.735 67.065C104.615 68.4533 104.055 70.6117 104.055 73.54C104.055 75.6283 104.312 77.3317 104.825 78.65C105.338 79.9567 106.032 80.9192 106.907 81.5375C107.794 82.1558 108.792 82.465 109.9 82.465Z" fill="#FF8686"/>
<path d="M132.113 86V59.75H136.453V75.675L141.878 68.5H146.778L140.408 76.9L146.918 86H142.018L136.453 78.23V86H132.113Z" fill="#FF8686"/>
<path d="M156.504 86.35C154.497 86.35 152.811 85.9417 151.446 85.125C150.093 84.2967 149.066 83.2 148.366 81.835C147.678 80.4583 147.334 78.9417 147.334 77.285C147.334 75.6167 147.678 74.0942 148.366 72.7175C149.054 71.3292 150.087 70.2208 151.464 69.3925C152.84 68.5642 154.567 68.15 156.644 68.15C157.624 68.15 158.51 68.2608 159.304 68.4825C160.097 68.6925 160.774 68.955 161.334 69.27L160.984 72.77C160.447 72.49 159.84 72.2567 159.164 72.07C158.499 71.8833 157.799 71.79 157.064 71.79C155.384 71.79 154.083 72.2975 153.161 73.3125C152.239 74.3275 151.779 75.6517 151.779 77.285C151.779 78.8367 152.251 80.1433 153.196 81.205C154.141 82.255 155.419 82.78 157.029 82.78C157.717 82.78 158.394 82.6808 159.059 82.4825C159.735 82.2725 160.389 81.9867 161.019 81.625L161.404 85.3C160.797 85.615 160.062 85.8658 159.199 86.0525C158.347 86.2508 157.449 86.35 156.504 86.35Z" fill="#FF8686"/>
<path d="M168.091 86.35C167.158 86.35 166.306 86.1458 165.536 85.7375C164.766 85.3175 164.154 84.7167 163.699 83.935C163.244 83.1533 163.016 82.2083 163.016 81.1C163.016 80.1083 163.244 79.2625 163.699 78.5625C164.165 77.8508 164.772 77.2617 165.519 76.795C166.277 76.3167 167.094 75.9433 167.969 75.675C168.855 75.395 169.725 75.1908 170.576 75.0625C171.44 74.9342 172.198 74.8583 172.851 74.835C172.805 73.8317 172.548 73.1025 172.081 72.6475C171.615 72.1925 170.821 71.965 169.701 71.965C168.92 71.965 168.155 72.0758 167.409 72.2975C166.674 72.5075 165.84 72.84 164.906 73.295L164.521 69.76C165.571 69.2467 166.621 68.8617 167.671 68.605C168.733 68.3483 169.806 68.22 170.891 68.22C172.198 68.22 173.324 68.4533 174.269 68.92C175.214 69.3867 175.943 70.1392 176.456 71.1775C176.97 72.2042 177.226 73.5633 177.226 75.255V79.98C177.226 80.855 177.267 81.4908 177.349 81.8875C177.43 82.2725 177.582 82.5175 177.804 82.6225C178.025 82.7275 178.346 82.78 178.766 82.78H179.326L178.941 86.35H177.366C176.713 86.35 176.13 86.2625 175.616 86.0875C175.115 85.9242 174.683 85.6908 174.321 85.3875C173.96 85.0842 173.668 84.7283 173.446 84.32C172.875 84.9617 172.099 85.4633 171.119 85.825C170.15 86.175 169.141 86.35 168.091 86.35ZM169.911 83.025C170.296 83.025 170.775 82.9258 171.346 82.7275C171.918 82.5175 172.431 82.1967 172.886 81.765V77.775C172.07 77.81 171.253 77.9442 170.436 78.1775C169.62 78.4108 168.937 78.755 168.389 79.21C167.84 79.665 167.566 80.2367 167.566 80.925C167.566 81.6367 167.753 82.1675 168.126 82.5175C168.5 82.8558 169.095 83.025 169.911 83.025Z" fill="#FF8686"/>
<path d="M186.223 86.35C185.185 86.35 184.333 86.1458 183.668 85.7375C183.015 85.3175 182.53 84.7633 182.215 84.075C181.9 83.375 181.743 82.605 181.743 81.765V59.75H186.083V79.98C186.083 80.9133 186.135 81.5783 186.24 81.975C186.357 82.36 186.567 82.5933 186.87 82.675C187.174 82.745 187.611 82.78 188.183 82.78L187.798 86.35H186.223Z" fill="#FF8686"/>
</svg>
