<svg width="235" height="235" viewBox="0 0 235 235" fill="none" xmlns="http://www.w3.org/2000/svg">
<path d="M235 117.5C235 182.393 182.393 235 117.5 235C52.6065 235 0 182.393 0 117.5C0 52.6065 52.6065 0 117.5 0C182.393 0 235 52.6065 235 117.5Z" fill="#FF8686"/>
<path d="M218 117.5C218 173.005 173.005 218 117.5 218C61.9954 218 17 173.005 17 117.5C17 61.9954 61.9954 17 117.5 17C173.005 17 218 61.9954 218 117.5Z" fill="white"/>
<path d="M86.9292 108V89.835C86.4742 90.1267 85.99 90.3833 85.4767 90.605C84.975 90.8267 84.4325 90.99 83.8492 91.095L83.4642 87.315C83.9658 87.21 84.5258 86.9592 85.1442 86.5625C85.7625 86.1658 86.3342 85.6992 86.8592 85.1625C87.3842 84.6142 87.7575 84.06 87.9792 83.5H91.4092V108H86.9292Z" fill="#FF8686"/>
<path d="M102.159 108L99.0441 105.55C99.6507 105.258 100.374 104.844 101.214 104.308C102.054 103.771 102.917 103.135 103.804 102.4C104.691 101.653 105.519 100.813 106.289 99.88C107.059 98.9467 107.683 97.9317 108.162 96.835C108.64 95.7383 108.879 94.5717 108.879 93.335L110.139 94.875C109.532 95.8667 108.71 96.6775 107.672 97.3075C106.645 97.9258 105.309 98.235 103.664 98.235C102.299 98.235 101.074 97.92 99.9891 97.29C98.9157 96.66 98.0641 95.7908 97.4341 94.6825C96.8041 93.5742 96.4891 92.2967 96.4891 90.85C96.4891 89.2983 96.8158 87.9333 97.4691 86.755C98.1224 85.5767 99.0499 84.6608 100.252 84.0075C101.465 83.3425 102.894 83.01 104.539 83.01C106.242 83.01 107.73 83.3892 109.002 84.1475C110.273 84.9058 111.259 85.9733 111.959 87.35C112.659 88.715 113.009 90.3133 113.009 92.145C113.009 94.0467 112.671 95.8317 111.994 97.5C111.329 99.1567 110.454 100.668 109.369 102.033C108.296 103.386 107.123 104.57 105.852 105.585C104.592 106.588 103.361 107.393 102.159 108ZM104.469 94.385C105.589 94.385 106.511 94.035 107.234 93.335C107.957 92.6233 108.319 91.7367 108.319 90.675C108.319 89.6017 107.957 88.6975 107.234 87.9625C106.511 87.2275 105.589 86.86 104.469 86.86C103.372 86.86 102.457 87.2275 101.722 87.9625C100.987 88.6975 100.619 89.6017 100.619 90.675C100.619 91.7367 100.987 92.6233 101.722 93.335C102.457 94.035 103.372 94.385 104.469 94.385Z" fill="#FF8686"/>
<path d="M116.002 108L122.442 98.095C123.294 96.7883 123.977 95.6858 124.49 94.7875C125.015 93.8892 125.394 93.1017 125.627 92.425C125.861 91.7483 125.977 91.0833 125.977 90.43C125.977 89.4267 125.692 88.6392 125.12 88.0675C124.56 87.4958 123.772 87.21 122.757 87.21C121.532 87.21 120.43 87.5133 119.45 88.12C118.482 88.7267 117.612 89.415 116.842 90.185L116.282 85.67C117.332 84.83 118.447 84.1767 119.625 83.71C120.815 83.2433 122.162 83.01 123.667 83.01C125.149 83.01 126.38 83.3133 127.36 83.92C128.352 84.5267 129.092 85.3317 129.582 86.335C130.072 87.3383 130.317 88.435 130.317 89.625C130.317 90.5467 130.189 91.4742 129.932 92.4075C129.676 93.3292 129.25 94.3558 128.655 95.4875C128.072 96.6075 127.284 97.92 126.292 99.425L123.422 103.8H131.192V108H116.002Z" fill="#FF8686"/>
<path d="M143.558 108.49C141.784 108.49 140.25 108.175 138.955 107.545C137.672 106.903 136.68 106.017 135.98 104.885C135.292 103.753 134.948 102.447 134.948 100.965C134.948 99.495 135.309 98.2058 136.033 97.0975C136.756 95.9775 137.759 95.1083 139.043 94.49C140.338 93.86 141.843 93.545 143.558 93.545C145.273 93.545 146.778 93.86 148.073 94.49C149.368 95.1083 150.371 95.9775 151.083 97.0975C151.806 98.2058 152.168 99.495 152.168 100.965C152.168 102.447 151.818 103.753 151.118 104.885C150.418 106.017 149.42 106.903 148.125 107.545C146.842 108.175 145.319 108.49 143.558 108.49ZM143.558 104.64C144.981 104.64 146.084 104.278 146.865 103.555C147.647 102.832 148.038 101.875 148.038 100.685C148.038 99.565 147.647 98.6375 146.865 97.9025C146.084 97.1675 144.981 96.8 143.558 96.8C142.146 96.8 141.044 97.1675 140.25 97.9025C139.469 98.6375 139.078 99.565 139.078 100.685C139.078 101.875 139.469 102.832 140.25 103.555C141.044 104.278 142.146 104.64 143.558 104.64ZM143.558 96.1C142.169 96.1 140.909 95.8258 139.778 95.2775C138.646 94.7292 137.742 93.9708 137.065 93.0025C136.4 92.0225 136.068 90.8967 136.068 89.625C136.068 88.5517 136.319 87.5075 136.82 86.4925C137.334 85.4775 138.139 84.6433 139.235 83.99C140.344 83.3367 141.784 83.01 143.558 83.01C145.331 83.01 146.754 83.3367 147.828 83.99C148.913 84.6433 149.694 85.4775 150.173 86.4925C150.663 87.5075 150.908 88.5517 150.908 89.625C150.908 90.8967 150.604 92.0225 149.998 93.0025C149.403 93.9708 148.551 94.7292 147.443 95.2775C146.346 95.8258 145.051 96.1 143.558 96.1ZM143.558 92.845C144.701 92.845 145.559 92.5358 146.13 91.9175C146.702 91.2875 146.988 90.535 146.988 89.66C146.988 88.7267 146.702 87.9683 146.13 87.385C145.559 86.8017 144.701 86.51 143.558 86.51C142.426 86.51 141.545 86.8017 140.915 87.385C140.297 87.9683 139.988 88.7267 139.988 89.66C139.988 90.535 140.297 91.2875 140.915 91.9175C141.545 92.5358 142.426 92.845 143.558 92.845Z" fill="#FF8686"/>
<path d="M48.6962 151V124.75H53.0362V140.675L58.4612 133.5H63.3612L56.9912 141.9L63.5012 151H58.6012L53.0362 143.23V151H48.6962Z" fill="#FF8686"/>
<path d="M73.0865 151.35C71.0799 151.35 69.394 150.942 68.029 150.125C66.6757 149.297 65.649 148.2 64.949 146.835C64.2607 145.458 63.9165 143.942 63.9165 142.285C63.9165 140.617 64.2607 139.094 64.949 137.717C65.6374 136.329 66.6699 135.221 68.0465 134.393C69.4232 133.564 71.1499 133.15 73.2265 133.15C74.2065 133.15 75.0932 133.261 75.8865 133.482C76.6799 133.692 77.3565 133.955 77.9165 134.27L77.5665 137.77C77.0299 137.49 76.4232 137.257 75.7465 137.07C75.0815 136.883 74.3815 136.79 73.6465 136.79C71.9665 136.79 70.6657 137.297 69.744 138.312C68.8224 139.328 68.3615 140.652 68.3615 142.285C68.3615 143.837 68.834 145.143 69.779 146.205C70.724 147.255 72.0015 147.78 73.6115 147.78C74.2999 147.78 74.9765 147.681 75.6415 147.482C76.3182 147.272 76.9715 146.987 77.6015 146.625L77.9865 150.3C77.3799 150.615 76.6449 150.866 75.7815 151.053C74.9299 151.251 74.0315 151.35 73.0865 151.35Z" fill="#FF8686"/>
<path d="M84.6743 151.35C83.7409 151.35 82.8893 151.146 82.1193 150.738C81.3493 150.318 80.7368 149.717 80.2818 148.935C79.8268 148.153 79.5993 147.208 79.5993 146.1C79.5993 145.108 79.8268 144.263 80.2818 143.562C80.7484 142.851 81.3551 142.262 82.1018 141.795C82.8601 141.317 83.6768 140.943 84.5518 140.675C85.4384 140.395 86.3076 140.191 87.1593 140.062C88.0226 139.934 88.7809 139.858 89.4343 139.835C89.3876 138.832 89.1309 138.103 88.6643 137.648C88.1976 137.193 87.4043 136.965 86.2843 136.965C85.5026 136.965 84.7384 137.076 83.9918 137.298C83.2568 137.508 82.4226 137.84 81.4893 138.295L81.1043 134.76C82.1543 134.247 83.2043 133.862 84.2543 133.605C85.3159 133.348 86.3893 133.22 87.4743 133.22C88.7809 133.22 89.9068 133.453 90.8518 133.92C91.7968 134.387 92.5259 135.139 93.0393 136.178C93.5526 137.204 93.8093 138.563 93.8093 140.255V144.98C93.8093 145.855 93.8501 146.491 93.9318 146.887C94.0134 147.272 94.1651 147.517 94.3868 147.622C94.6084 147.727 94.9293 147.78 95.3493 147.78H95.9093L95.5243 151.35H93.9493C93.2959 151.35 92.7126 151.262 92.1993 151.087C91.6976 150.924 91.2659 150.691 90.9043 150.387C90.5426 150.084 90.2509 149.728 90.0293 149.32C89.4576 149.962 88.6818 150.463 87.7018 150.825C86.7334 151.175 85.7243 151.35 84.6743 151.35ZM86.4943 148.025C86.8793 148.025 87.3576 147.926 87.9293 147.727C88.5009 147.517 89.0143 147.197 89.4693 146.765V142.775C88.6526 142.81 87.8359 142.944 87.0193 143.178C86.2026 143.411 85.5201 143.755 84.9718 144.21C84.4234 144.665 84.1493 145.237 84.1493 145.925C84.1493 146.637 84.3359 147.168 84.7093 147.518C85.0826 147.856 85.6776 148.025 86.4943 148.025Z" fill="#FF8686"/>
<path d="M102.806 151.35C101.768 151.35 100.916 151.146 100.251 150.738C99.5976 150.318 99.1134 149.763 98.7984 149.075C98.4834 148.375 98.3259 147.605 98.3259 146.765V124.75H102.666V144.98C102.666 145.913 102.718 146.578 102.823 146.975C102.94 147.36 103.15 147.593 103.453 147.675C103.757 147.745 104.194 147.78 104.766 147.78L104.381 151.35H102.806Z" fill="#FF8686"/>
<path d="M113.072 153.975L122.452 126.5H126.827L117.447 153.975H113.072Z" fill="#FF8686"/>
<path d="M142.891 151.35C141.118 151.35 139.624 150.936 138.411 150.107C137.209 149.279 136.299 148.177 135.681 146.8C135.074 145.423 134.771 143.918 134.771 142.285C134.771 140.652 135.074 139.147 135.681 137.77C136.299 136.393 137.209 135.291 138.411 134.462C139.624 133.634 141.118 133.22 142.891 133.22C144.174 133.22 145.259 133.436 146.146 133.867C147.033 134.287 147.814 134.83 148.491 135.495L147.441 136.405V124.75H151.781V151H147.686L147.476 148.025L148.736 148.935C147.919 149.682 147.074 150.271 146.199 150.702C145.324 151.134 144.221 151.35 142.891 151.35ZM143.521 147.78C144.478 147.78 145.259 147.547 145.866 147.08C146.473 146.613 146.922 145.972 147.214 145.155C147.505 144.327 147.651 143.37 147.651 142.285C147.651 141.2 147.505 140.249 147.214 139.432C146.922 138.604 146.473 137.957 145.866 137.49C145.259 137.023 144.478 136.79 143.521 136.79C142.611 136.79 141.835 137.023 141.194 137.49C140.552 137.957 140.062 138.604 139.724 139.432C139.385 140.249 139.216 141.2 139.216 142.285C139.216 143.37 139.385 144.327 139.724 145.155C140.062 145.972 140.552 146.613 141.194 147.08C141.835 147.547 142.611 147.78 143.521 147.78Z" fill="#FF8686"/>
<path d="M159.596 151.35C158.663 151.35 157.811 151.146 157.041 150.738C156.271 150.318 155.659 149.717 155.204 148.935C154.749 148.153 154.521 147.208 154.521 146.1C154.521 145.108 154.749 144.263 155.204 143.562C155.67 142.851 156.277 142.262 157.024 141.795C157.782 141.317 158.599 140.943 159.474 140.675C160.36 140.395 161.229 140.191 162.081 140.062C162.944 139.934 163.703 139.858 164.356 139.835C164.309 138.832 164.053 138.103 163.586 137.648C163.119 137.193 162.326 136.965 161.206 136.965C160.424 136.965 159.66 137.076 158.914 137.298C158.179 137.508 157.344 137.84 156.411 138.295L156.026 134.76C157.076 134.247 158.126 133.862 159.176 133.605C160.238 133.348 161.311 133.22 162.396 133.22C163.703 133.22 164.829 133.453 165.774 133.92C166.719 134.387 167.448 135.139 167.961 136.178C168.474 137.204 168.731 138.563 168.731 140.255V144.98C168.731 145.855 168.772 146.491 168.854 146.887C168.935 147.272 169.087 147.517 169.309 147.622C169.53 147.727 169.851 147.78 170.271 147.78H170.831L170.446 151.35H168.871C168.218 151.35 167.634 151.262 167.121 151.087C166.619 150.924 166.188 150.691 165.826 150.387C165.464 150.084 165.173 149.728 164.951 149.32C164.379 149.962 163.604 150.463 162.624 150.825C161.655 151.175 160.646 151.35 159.596 151.35ZM161.416 148.025C161.801 148.025 162.279 147.926 162.851 147.727C163.423 147.517 163.936 147.197 164.391 146.765V142.775C163.574 142.81 162.758 142.944 161.941 143.178C161.124 143.411 160.442 143.755 159.894 144.21C159.345 144.665 159.071 145.237 159.071 145.925C159.071 146.637 159.258 147.168 159.631 147.518C160.004 147.856 160.599 148.025 161.416 148.025Z" fill="#FF8686"/>
<path d="M173.93 159.47L177.815 149.845L170.535 133.5H175.365L179.845 144.77L184.395 133.5H189.225L178.27 159.47H173.93Z" fill="#FF8686"/>
</svg>
