<svg width="355" height="183" viewBox="0 0 355 183" fill="none" xmlns="http://www.w3.org/2000/svg">
<g filter="url(#filter0_di_116_11871)">
<path d="M78.1477 150V100H90.5477V150H78.1477ZM78.1477 92.4001V80.0001H90.5477V92.4001H78.1477Z" fill="white"/>
<path d="M122.371 151C117.304 151 113.038 149.817 109.571 147.45C106.138 145.083 103.538 141.933 101.771 138C100.038 134.067 99.1711 129.767 99.1711 125.1C99.1711 120.433 100.038 116.133 101.771 112.2C103.538 108.267 106.138 105.117 109.571 102.75C113.038 100.383 117.304 99.2001 122.371 99.2001C126.038 99.2001 129.138 99.8168 131.671 101.05C134.204 102.25 136.438 103.8 138.371 105.7L135.371 108.3V75.0001H147.771V150H136.071L135.471 141.5L139.071 144.1C136.738 146.233 134.321 147.917 131.821 149.15C129.321 150.383 126.171 151 122.371 151ZM124.171 140.8C126.904 140.8 129.138 140.133 130.871 138.8C132.604 137.467 133.888 135.633 134.721 133.3C135.554 130.933 135.971 128.2 135.971 125.1C135.971 122 135.554 119.283 134.721 116.95C133.888 114.583 132.604 112.733 130.871 111.4C129.138 110.067 126.904 109.4 124.171 109.4C121.571 109.4 119.354 110.067 117.521 111.4C115.688 112.733 114.288 114.583 113.321 116.95C112.354 119.283 111.871 122 111.871 125.1C111.871 128.2 112.354 130.933 113.321 133.3C114.288 135.633 115.688 137.467 117.521 138.8C119.354 140.133 121.571 140.8 124.171 140.8Z" fill="white"/>
<path d="M185.3 151C181.5 151 178.217 150.383 175.45 149.15C172.683 147.917 170.1 146.233 167.7 144.1L171.4 141.5L170.8 150H159.2V75.0001H171.6V108.3L168.6 106.4C170.8 104.133 173.25 102.367 175.95 101.1C178.683 99.8334 181.8 99.2001 185.3 99.2001C190.2 99.2001 194.317 100.383 197.65 102.75C200.983 105.117 203.5 108.267 205.2 112.2C206.933 116.133 207.8 120.433 207.8 125.1C207.8 129.767 206.933 134.067 205.2 138C203.5 141.933 200.983 145.083 197.65 147.45C194.317 149.817 190.2 151 185.3 151ZM183.5 140.8C185.967 140.8 188.067 140.133 189.8 138.8C191.533 137.467 192.85 135.633 193.75 133.3C194.65 130.933 195.1 128.2 195.1 125.1C195.1 122 194.65 119.283 193.75 116.95C192.85 114.583 191.533 112.733 189.8 111.4C188.067 110.067 185.967 109.4 183.5 109.4C180.6 109.4 178.233 110.067 176.4 111.4C174.567 112.733 173.2 114.583 172.3 116.95C171.433 119.283 171 122 171 125.1C171 128.2 171.433 130.933 172.3 133.3C173.2 135.633 174.567 137.467 176.4 138.8C178.233 140.133 180.6 140.8 183.5 140.8Z" fill="white"/>
<path d="M216.429 150V100H228.829V150H216.429ZM216.429 92.4001V80.0001H228.829V92.4001H216.429Z" fill="white"/>
<path d="M69.4914 174.45C64.1247 174.45 59.7547 172.763 56.3814 169.39C53.0081 165.863 50.4014 161.34 48.5614 155.82C46.8747 150.3 45.7247 144.397 45.1114 138.11C44.4981 131.67 44.1914 125.613 44.1914 119.94C44.1914 116.567 44.2681 113.5 44.4214 110.74C44.5747 107.827 44.7281 105.373 44.8814 103.38C45.1881 97.5534 45.7247 91.1901 46.4914 84.2901C47.2581 77.2368 48.1781 70.0301 49.2514 62.6701C41.2781 63.8968 33.9947 64.8934 27.4014 65.6601C20.6547 66.4268 15.0581 66.8101 10.6114 66.8101C9.99807 66.8101 9.07807 66.0434 7.8514 64.5101C6.62474 62.9768 5.70474 61.3668 5.0914 59.6801C4.32474 57.9934 4.24807 57.2268 4.8614 57.3801C6.39474 57.5334 7.8514 57.6868 9.2314 57.8401C10.6114 57.8401 12.0681 57.8401 13.6014 57.8401C18.2014 57.8401 23.3381 57.5334 29.0114 56.9201C34.5314 56.3068 41.6614 55.5401 50.4014 54.6201C51.6281 46.9534 52.9314 39.3634 54.3114 31.8501C55.8447 24.3368 57.3781 17.2068 58.9114 10.4601C59.6781 7.39342 60.3681 4.94008 60.9814 3.10009C61.7481 1.26009 63.1281 0.493419 65.1214 0.800091C66.9614 1.10675 68.8781 1.79675 70.8714 2.87009C72.8647 3.94342 74.2447 5.17009 75.0114 6.55009C78.0781 9.46342 80.3014 13.1434 81.6814 17.5901C83.0614 21.8834 83.7514 26.7134 83.7514 32.0801C83.7514 37.7534 83.0614 43.9634 81.6814 50.7101C90.1147 49.4834 98.7781 48.0268 107.671 46.3401C116.718 44.5001 125.458 42.6601 133.891 40.8201C142.478 38.8267 150.221 37.0634 157.121 35.5301C158.195 35.2234 158.348 35.3768 157.581 35.9901C156.815 36.4501 155.741 36.9867 154.361 37.6001C152.981 38.2134 151.831 38.6734 150.911 38.9801C141.251 42.3534 130.211 45.6501 117.791 48.8701C105.371 52.0901 92.8747 54.9268 80.3014 57.3801C77.8481 67.6534 74.3981 78.3101 69.9514 89.3501C65.5047 100.237 60.8281 110.74 55.9214 120.86C55.9214 122.393 55.8447 123.927 55.6914 125.46C55.6914 126.84 55.6914 128.297 55.6914 129.83C55.6914 137.343 56.0747 144.09 56.8414 150.07C57.7614 155.897 59.2181 160.65 61.2114 164.33C62.5914 166.937 64.1247 168.777 65.8114 169.85C67.6514 170.77 69.4147 171.23 71.1014 171.23C72.7881 171.23 74.3981 170.923 75.9314 170.31C77.4647 169.697 78.6147 169.237 79.3814 168.93C81.0681 168.163 82.2181 167.857 82.8314 168.01C83.4447 168.163 83.3681 168.623 82.6014 169.39C82.1414 170.003 80.7614 171 78.4614 172.38C76.1614 173.76 73.1714 174.45 69.4914 174.45ZM65.1214 53.0101L68.3414 52.5501L76.3914 51.6301C77.1581 48.1034 77.6947 44.7301 78.0014 41.5101C78.4614 38.2901 78.6914 35.2234 78.6914 32.3101C78.6914 24.3368 77.2347 17.9734 74.3214 13.2201C72.6347 19.3534 71.0247 25.7934 69.4914 32.5401C67.9581 39.2868 66.5014 46.1101 65.1214 53.0101ZM56.6114 108.9C60.2914 100.467 63.7414 91.9568 66.9614 83.3701C70.1814 74.7834 72.7881 66.5034 74.7814 58.5301C72.7881 58.8368 70.8714 59.1434 69.0314 59.4501C67.1914 59.7568 65.3514 60.0634 63.5114 60.3701C61.9781 68.6501 60.5981 76.9301 59.3714 85.2101C58.2981 93.3368 57.3781 101.233 56.6114 108.9Z" fill="white"/>
<path d="M262.491 174.45C257.125 174.45 252.755 172.763 249.381 169.39C246.008 165.863 243.401 161.34 241.561 155.82C239.875 150.3 238.725 144.397 238.111 138.11C237.498 131.67 237.191 125.613 237.191 119.94C237.191 116.567 237.268 113.5 237.421 110.74C237.575 107.827 237.728 105.373 237.881 103.38C238.188 97.5534 238.725 91.1901 239.491 84.2901C240.258 77.2368 241.178 70.0301 242.251 62.6701C234.278 63.8968 226.995 64.8934 220.401 65.6601C213.655 66.4268 208.058 66.8101 203.611 66.8101C202.998 66.8101 202.078 66.0434 200.851 64.5101C199.625 62.9768 198.705 61.3668 198.091 59.6801C197.325 57.9934 197.248 57.2268 197.861 57.3801C199.395 57.5334 200.851 57.6868 202.231 57.8401C203.611 57.8401 205.068 57.8401 206.601 57.8401C211.201 57.8401 216.338 57.5334 222.011 56.9201C227.531 56.3068 234.661 55.5401 243.401 54.6201C244.628 46.9534 245.931 39.3634 247.311 31.8501C248.845 24.3368 250.378 17.2068 251.911 10.4601C252.678 7.39342 253.368 4.94008 253.981 3.10009C254.748 1.26009 256.128 0.493419 258.121 0.800091C259.961 1.10675 261.878 1.79675 263.871 2.87009C265.865 3.94342 267.245 5.17009 268.011 6.55009C271.078 9.46342 273.301 13.1434 274.681 17.5901C276.061 21.8834 276.751 26.7134 276.751 32.0801C276.751 37.7534 276.061 43.9634 274.681 50.7101C283.115 49.4834 291.778 48.0268 300.671 46.3401C309.718 44.5001 318.458 42.6601 326.891 40.8201C335.478 38.8267 343.221 37.0634 350.121 35.5301C351.195 35.2234 351.348 35.3768 350.581 35.9901C349.815 36.4501 348.741 36.9867 347.361 37.6001C345.981 38.2134 344.831 38.6734 343.911 38.9801C334.251 42.3534 323.211 45.6501 310.791 48.8701C298.371 52.0901 285.875 54.9268 273.301 57.3801C270.848 67.6534 267.398 78.3101 262.951 89.3501C258.505 100.237 253.828 110.74 248.921 120.86C248.921 122.393 248.845 123.927 248.691 125.46C248.691 126.84 248.691 128.297 248.691 129.83C248.691 137.343 249.075 144.09 249.841 150.07C250.761 155.897 252.218 160.65 254.211 164.33C255.591 166.937 257.125 168.777 258.811 169.85C260.651 170.77 262.415 171.23 264.101 171.23C265.788 171.23 267.398 170.923 268.931 170.31C270.465 169.697 271.615 169.237 272.381 168.93C274.068 168.163 275.218 167.857 275.831 168.01C276.445 168.163 276.368 168.623 275.601 169.39C275.141 170.003 273.761 171 271.461 172.38C269.161 173.76 266.171 174.45 262.491 174.45ZM258.121 53.0101L261.341 52.5501L269.391 51.6301C270.158 48.1034 270.695 44.7301 271.001 41.5101C271.461 38.2901 271.691 35.2234 271.691 32.3101C271.691 24.3368 270.235 17.9734 267.321 13.2201C265.635 19.3534 264.025 25.7934 262.491 32.5401C260.958 39.2868 259.501 46.1101 258.121 53.0101ZM249.611 108.9C253.291 100.467 256.741 91.9568 259.961 83.3701C263.181 74.7834 265.788 66.5034 267.781 58.5301C265.788 58.8368 263.871 59.1434 262.031 59.4501C260.191 59.7568 258.351 60.0634 256.511 60.3701C254.978 68.6501 253.598 76.9301 252.371 85.2101C251.298 93.3368 250.378 101.233 249.611 108.9Z" fill="white"/>
</g>
<defs>
<filter id="filter0_di_116_11871" x="0.452515" y="0.734375" width="354.608" height="181.716" filterUnits="userSpaceOnUse" color-interpolation-filters="sRGB">
<feFlood flood-opacity="0" result="BackgroundImageFix"/>
<feColorMatrix in="SourceAlpha" type="matrix" values="0 0 0 0 0 0 0 0 0 0 0 0 0 0 0 0 0 0 127 0" result="hardAlpha"/>
<feOffset dy="4"/>
<feGaussianBlur stdDeviation="2"/>
<feComposite in2="hardAlpha" operator="out"/>
<feColorMatrix type="matrix" values="0 0 0 0 0 0 0 0 0 0 0 0 0 0 0 0 0 0 0.25 0"/>
<feBlend mode="normal" in2="BackgroundImageFix" result="effect1_dropShadow_116_11871"/>
<feBlend mode="normal" in="SourceGraphic" in2="effect1_dropShadow_116_11871" result="shape"/>
<feColorMatrix in="SourceAlpha" type="matrix" values="0 0 0 0 0 0 0 0 0 0 0 0 0 0 0 0 0 0 127 0" result="hardAlpha"/>
<feOffset dy="4"/>
<feGaussianBlur stdDeviation="2"/>
<feComposite in2="hardAlpha" operator="arithmetic" k2="-1" k3="1"/>
<feColorMatrix type="matrix" values="0 0 0 0 0 0 0 0 0 0 0 0 0 0 0 0 0 0 0.25 0"/>
<feBlend mode="normal" in2="shape" result="effect2_innerShadow_116_11871"/>
</filter>
</defs>
</svg>
